<?xml version="1.0" encoding="utf-8"?><svg version="1.1" id="Layer_1" xmlns="http://www.w3.org/2000/svg" xmlns:xlink="http://www.w3.org/1999/xlink" x="0px" y="0px" viewBox="0 0 122.88 113.39" style="enable-background:new 0 0 122.88 113.39" xml:space="preserve"><g><path d="M61.54,0.64C61.11,0.26,60.52,0,59.92,0c-0.13,0-0.26,0-0.38,0.04H5.36c-1.45,0-2.81,0.59-3.78,1.57C0.6,2.59,0,3.91,0,5.4 v102.63c0,1.49,0.6,2.81,1.57,3.78c0.98,0.98,2.3,1.57,3.78,1.57c27.3,0,52.36,0,79.52,0c1.49,0,2.81-0.6,3.78-1.57 c0.98-0.98,1.57-2.3,1.57-3.78v-12.5h25.67c3.82,0,6.97-3.15,6.97-6.97V59.57c0-3.82-3.14-6.97-6.97-6.97H90.24V31.25 c0.04-0.21,0.09-0.38,0.09-0.6c0-0.72-0.34-1.36-0.81-1.83L61.84,0.81c-0.09-0.09-0.13-0.13-0.21-0.17H61.54L61.54,0.64z M83.28,95.53v10.3c0,0.13-0.18,0.3-0.31,0.38c-0.09,0.09-0.08,0.17-0.25,0.17c-21.61,0-54.19,0-75.21,0 c-0.13,0-0.3-0.04-0.38-0.17c-0.09-0.09-0.17-0.26-0.17-0.38V7.6c0-0.17,0.04-0.3,0.17-0.38c0.09-0.09,0.21-0.17,0.38-0.17h48.47 l0,0v19.31c0,2,0.81,4.38,2.13,5.7c1.32,1.32,4.11,2.4,6.11,2.4h19.06v18.14H20.33c-3.84,0-6.97,3.14-6.97,6.97v28.99 c0,3.83,3.15,6.97,6.97,6.97H83.28L83.28,95.53z M34.98,62.59h7.12v12.47c0,2.62-0.23,4.61-0.69,5.98 c-0.47,1.36-1.4,2.52-2.81,3.47c-1.41,0.95-3.21,1.42-5.4,1.42c-2.32,0-4.12-0.32-5.39-0.94c-1.28-0.63-2.26-1.54-2.96-2.75 c-0.69-1.2-1.11-2.69-1.23-4.47l6.77-0.92c0.01,1,0.1,1.75,0.27,2.24c0.17,0.49,0.45,0.88,0.85,1.19c0.27,0.2,0.66,0.29,1.16,0.29 c0.8,0,1.38-0.29,1.75-0.88c0.37-0.59,0.56-1.58,0.56-2.98V62.59L34.98,62.59z M45.77,62.59h11.8c2.57,0,4.49,0.61,5.78,1.83 c1.28,1.22,1.92,2.97,1.92,5.23c0,2.32-0.7,4.14-2.09,5.44c-1.39,1.31-3.53,1.96-6.39,1.96h-3.89v8.5h-7.12V62.59L45.77,62.59z M52.89,72.4h1.75c1.38,0,2.35-0.24,2.9-0.72c0.56-0.48,0.83-1.08,0.83-1.83c0-0.72-0.24-1.33-0.73-1.83 c-0.48-0.5-1.39-0.75-2.73-0.75h-2.03V72.4L52.89,72.4z M67.95,62.59h18.98v4.91H75.07v3.66h11v4.68h-11v4.52h12.22v5.19H67.95 V62.59L67.95,62.59z M101.64,77.24v-4.78h10.97v9.76c-2.1,1.43-3.96,2.41-5.56,2.93c-1.61,0.52-3.53,0.77-5.74,0.77 c-2.73,0-4.95-0.46-6.66-1.39c-1.72-0.92-3.05-2.31-3.99-4.15c-0.95-1.83-1.42-3.94-1.42-6.32c0-2.51,0.52-4.68,1.55-6.54 c1.03-1.85,2.54-3.25,4.54-4.22c1.56-0.74,3.65-1.11,6.28-1.11c2.53,0,4.43,0.23,5.69,0.69c1.26,0.46,2.3,1.17,3.13,2.14 c0.83,0.97,1.45,2.19,1.87,3.67l-6.83,1.23c-0.28-0.87-0.76-1.54-1.43-2c-0.67-0.46-1.53-0.69-2.58-0.69 c-1.55,0-2.79,0.54-3.71,1.62c-0.92,1.08-1.38,2.79-1.38,5.12c0,2.48,0.47,4.25,1.4,5.32c0.93,1.06,2.23,1.6,3.9,1.6 c0.79,0,1.54-0.11,2.27-0.34c0.72-0.23,1.54-0.62,2.47-1.17v-2.15H101.64L101.64,77.24z M62.3,25.81V8.25l19.77,20.03H64.77 c-0.68,0-1.28-0.3-1.74-0.72C62.6,27.13,62.3,26.49,62.3,25.81L62.3,25.81z"/></g></svg>